<svg width="501" height="126" viewBox="0 0 501 126" fill="none" xmlns="http://www.w3.org/2000/svg">
<path d="M62.8701 125.03C97.41 125.03 125.41 97.0478 125.41 62.53C125.41 28.0122 97.41 0.0299988 62.8701 0.0299988C28.3302 0.0299988 0.330078 28.0122 0.330078 62.53C0.330078 97.0478 28.3302 125.03 62.8701 125.03Z" fill="#A3747C"/>
<path fill-rule="evenodd" clip-rule="evenodd" d="M30.6 25.18V29.94H40.78L17.72 92.25H12V97.25H33.28V92.25H23.68L30.6 71.88H60.32L67.82 92.25H58V97.25H79.62V92.41H76.08L97.26 29.94V92.41H88.51V97.23H112.67V92.41H102.9V29.94H112.67V25.18H93.32L72.32 87.38L49.68 25.18H30.6Z" fill="white"/>
<path fill-rule="evenodd" clip-rule="evenodd" d="M45.7598 31.23L32.8398 66.74H58.5098L45.7598 31.23Z" fill="#A3747C"/>
<path d="M173.93 60.8L165.93 38.98L157.83 60.8H173.93ZM145.13 79.15V76.23H148.69L164 35.49H168.42L183.31 76.23H186.87V79.15H173.46V76.23H179.46L175 63.81H156.71L152.19 76.23H158.19V79.15" fill="#4F4E50"/>
<path d="M196.61 64.38C196.481 67.6216 197.313 70.8289 199 73.6C199.766 74.7958 200.837 75.766 202.102 76.411C203.367 77.056 204.782 77.3525 206.2 77.27C207.654 77.3471 209.101 77.0032 210.365 76.2796C211.63 75.556 212.659 74.4834 213.33 73.19C214.924 70.1253 215.705 66.7029 215.6 63.25C215.738 60.1074 214.884 57.0009 213.16 54.37C212.357 53.2344 211.279 52.3218 210.026 51.7183C208.773 51.1147 207.388 50.84 206 50.92C204.567 50.8622 203.147 51.2062 201.899 51.913C200.652 52.6198 199.626 53.6614 198.94 54.92C197.31 57.7941 196.49 61.0568 196.57 64.36M188.85 79.13V76.6H193.47V38H188.85V35.49H196.57V55.05H196.66C197.456 53.0828 198.816 51.3953 200.57 50.2C202.267 49.0153 204.29 48.3863 206.36 48.4C208.873 48.3052 211.357 48.9671 213.49 50.3C215.408 51.5995 216.868 53.4719 217.66 55.65C218.6 58.2656 219.054 61.0311 219 63.81C219 68.57 217.933 72.4267 215.8 75.38C213.67 78.38 210.54 79.82 206.38 79.82C204.36 79.8822 202.37 79.3313 200.67 78.24C198.924 76.9788 197.544 75.2778 196.67 73.31H196.58V79.15" fill="#4F4E50"/>
<path d="M231.83 41.71H228.15V37.09H231.83V41.71ZM222.83 79.15V76.6H228.83V51.6H222.83V49.13H231.83V76.6H236.72V79.15" fill="#4F4E50"/>
<path d="M238.78 79.15V76.6H243.29V38H238.78V35.49H246.33V76.6H250.46V79.15" fill="#4F4E50"/>
<path d="M261.86 41.71H258.19V37.09H261.86V41.71ZM252.86 79.15V76.6H258.86V51.6H252.86V49.13H261.86V76.6H266.76V79.15" fill="#4F4E50"/>
<path d="M285.76 49.13V51.58H276.83V69.36C276.744 71.2752 276.96 73.192 277.47 75.04C277.658 75.6311 278.045 76.139 278.564 76.478C279.083 76.8169 279.704 76.966 280.32 76.9C280.952 76.9679 281.589 76.8427 282.148 76.541C282.707 76.2392 283.161 75.7752 283.45 75.21C284.091 73.562 284.371 71.7955 284.27 70.03H287.18C287.18 73.26 286.66 75.7 285.6 77.35C284.54 79 282.71 79.81 280.11 79.81C275.91 79.81 273.81 76.7033 273.81 70.49V51.58H268.73V49.13H273.81V42L276.81 40.69V49.14" fill="#4F4E50"/>
<path d="M317.11 49.13V51.58H314.75L304.22 80.36C303.22 83.12 302.48 85.07 301.99 86.2C301.458 87.3927 300.693 88.4671 299.74 89.36C299.232 89.8438 298.632 90.2219 297.977 90.4725C297.321 90.7231 296.622 90.8412 295.92 90.82C294.508 90.84 293.095 90.7765 291.69 90.63V88C292.753 88.1187 293.821 88.1821 294.89 88.19C295.652 88.1993 296.402 87.9966 297.055 87.6046C297.709 87.2126 298.24 86.6466 298.59 85.97C299.736 83.8355 300.645 81.5821 301.3 79.25L291 51.58H288.65V49.13H299V51.58H294.41L302.87 75.2L311.53 51.58H307V49.13" fill="#4F4E50"/>
<path d="M369.65 35.49V38.4H363.65V76.23H369.65V79.15H354.78V76.23H360.23V38.4H360.14L346.21 79.15H343.11L329.27 38.4H329.07V76.23H334.44V79.15H319.76V76.23H325.76V38.4H319.76V35.49H331.62L344.62 73.8L357.73 35.49" fill="#4F4E50"/>
<path d="M376.68 70.4C376.636 71.328 376.792 72.2546 377.137 73.1172C377.482 73.9798 378.008 74.7583 378.68 75.4C379.998 76.6321 381.746 77.2996 383.55 77.26C386.883 77.26 389.32 75.99 390.86 73.45C392.499 70.4411 393.291 67.0436 393.15 63.62H387C380.153 63.62 376.726 65.88 376.72 70.4M393.2 79.15V73.15H393C392.327 75.2345 390.929 77.0086 389.06 78.15C387.213 79.2698 385.09 79.8517 382.93 79.83C380.389 79.9333 377.907 79.0521 376 77.37C374.22 75.74 373.34 73.37 373.34 70.22C373.264 69.1344 373.421 68.0452 373.798 67.0246C374.176 66.004 374.766 65.0753 375.53 64.3C376.983 62.9509 378.79 62.0423 380.74 61.68C382.95 61.2747 385.193 61.0805 387.44 61.1H393.19V58.91C393.19 53.5767 390.646 50.91 385.56 50.91C380.893 50.91 378.256 53.0767 377.65 57.41H374.28C375.05 51.41 378.73 48.41 385.28 48.41C388.92 48.41 391.64 49.22 393.46 50.84C395.28 52.46 396.2 55.15 396.2 58.93V76.6H400.36V79.15" fill="#4F4E50"/>
<path d="M419.16 49.13V51.58H410.22V69.36C410.144 71.2748 410.36 73.1901 410.86 75.04C411.049 75.63 411.436 76.1369 411.955 76.4756C412.474 76.8142 413.094 76.9641 413.71 76.9C414.343 76.9672 414.981 76.8418 415.541 76.5402C416.101 76.2387 416.557 75.7751 416.85 75.21C417.487 73.561 417.763 71.7947 417.66 70.03H420.59C420.59 73.2567 420.06 75.6967 419 77.35C417.94 79.0033 416.107 79.8233 413.5 79.81C409.313 79.81 407.217 76.7033 407.21 70.49V51.58H402.13V49.13H407.21V42L410.21 40.69V49.14" fill="#4F4E50"/>
<path d="M422.53 79.15V76.6H427V51.6H422.56V49.13H430.1V55.05H430.2C430.553 53.2076 431.468 51.52 432.82 50.22C434.056 49.0265 435.713 48.3689 437.43 48.39C438.165 48.3727 438.899 48.4364 439.62 48.58V51.58C438.62 51.47 437.88 51.4 437.43 51.4C432.55 51.4 430.107 55.5367 430.1 63.81V76.6H436V79.15" fill="#4F4E50"/>
<path d="M451.82 41.71H448.14V37.09H451.82V41.71ZM442.82 79.15V76.6H448.82V51.6H442.82V49.13H451.82V76.6H456.72V79.15" fill="#4F4E50"/>
<path d="M458.3 79.15V76.6H460.94L470.94 63.71L461.63 51.58H458.9V49.13H469.81V51.58H465.58L472.82 61.19L480.27 51.58H476V49.13H486.73V51.58H483.9L474.78 63.71L484.57 76.6H487.4V79.15H476.58V76.6H480.8L472.8 66.17L464.89 76.6H469.13V79.15" fill="#4F4E50"/>
<path d="M492.81 36.72V40.07H494C494.37 40.0749 494.739 40.038 495.1 39.96C495.403 39.884 495.671 39.7078 495.86 39.46C496.08 39.1186 496.182 38.7147 496.15 38.31C496.18 37.9379 496.089 37.566 495.89 37.25C495.714 37.0181 495.457 36.8611 495.17 36.81C494.785 36.737 494.393 36.7068 494 36.72H492.81ZM491.19 44.24V43.7H492.19V36.7H491.19V36.16H493.89C494.397 36.151 494.903 36.1945 495.4 36.29C495.791 36.3742 496.142 36.5852 496.4 36.89C496.672 37.3157 496.816 37.8101 496.816 38.315C496.816 38.8199 496.672 39.3143 496.4 39.74C496.073 40.0641 495.648 40.2714 495.19 40.33C495.396 40.3859 495.594 40.4665 495.78 40.57C495.902 40.667 495.995 40.7948 496.05 40.94C496.187 41.2672 496.307 41.6009 496.41 41.94L497 43.7H497.59V44.24H496.46L495.76 41.86C495.686 41.5682 495.586 41.2837 495.46 41.01C495.416 40.9335 495.357 40.8667 495.287 40.8134C495.216 40.7602 495.136 40.7216 495.05 40.7C494.723 40.6242 494.386 40.5939 494.05 40.61H492.8V43.7H493.8V44.24H491.19Z" fill="#4F4E50"/>
<path d="M494.21 34.73C493.097 34.73 492.008 35.0602 491.082 35.6788C490.157 36.2975 489.435 37.1768 489.009 38.2055C488.583 39.2342 488.471 40.3663 488.688 41.4584C488.906 42.5505 489.442 43.5536 490.229 44.341C491.017 45.1284 492.02 45.6646 493.112 45.8818C494.204 46.0991 495.336 45.9876 496.365 45.5614C497.394 45.1353 498.273 44.4137 498.891 43.4879C499.51 42.562 499.84 41.4735 499.84 40.36C499.835 38.8685 499.24 37.4395 498.185 36.3848C497.131 35.3301 495.702 34.7353 494.21 34.73ZM494.21 46.49C492.998 46.492 491.811 46.1341 490.802 45.4618C489.793 44.7894 489.005 43.8327 488.54 42.7128C488.074 41.5929 487.951 40.36 488.187 39.1702C488.422 37.9805 489.005 36.8873 489.862 36.029C490.719 35.1707 491.811 34.5859 493.001 34.3485C494.19 34.1112 495.423 34.232 496.544 34.6957C497.665 35.1593 498.622 35.945 499.297 36.9533C499.971 37.9616 500.33 39.1472 500.33 40.36C500.33 41.9841 499.686 43.5417 498.538 44.691C497.391 45.8403 495.834 46.4874 494.21 46.49Z" fill="#4F4E50"/>
</svg>
